<svg width="204" height="43" viewBox="0 0 204 43" fill="none" xmlns="http://www.w3.org/2000/svg">
<path fill-rule="evenodd" clip-rule="evenodd" d="M71.7257 42.2564C64.6446 42.2564 57.5635 41.6944 50.5948 40.458C36.0955 41.9192 21.4837 41.2448 7.32152 38.3224C5.18595 37.8728 2.71318 37.1984 1.252 35.4001C0.465217 34.2761 0.240427 32.5901 0.802418 31.3537C1.25201 30.2297 1.92639 29.6677 2.93798 29.4429L3.05038 30.1173C2.0388 30.3421 1.5892 31.1289 1.4768 31.5785C1.0272 32.7025 1.13961 34.0513 1.814 34.9505C3.16277 36.6364 5.41075 37.1984 7.54631 37.648C20.6969 40.3456 34.4095 41.1324 48.0097 39.896C46.2862 39.5963 44.5253 39.2216 42.727 38.772C38.3434 37.648 33.7351 36.2992 30.3632 33.1521C27.1036 30.1173 24.8556 24.8346 26.9912 20.4511C28.34 17.5287 31.2623 15.618 34.1847 14.0444C51.9436 4.26574 72.7373 -0.230181 92.969 1.231C97.2401 1.56819 102.186 2.24257 106.12 4.94013C109.716 7.41289 112.526 12.4708 110.84 17.0791C110.278 18.6527 109.267 20.0015 108.03 21.1255C108.705 21.5751 109.342 22.0621 109.941 22.5867C142.986 34.5009 169.287 34.3885 203.569 22.9238L203.794 23.5982C169.849 34.9505 143.548 35.1753 110.84 23.7106C111.365 24.385 111.852 25.0969 112.301 25.8462C112.301 25.9211 112.301 25.9586 112.301 25.9586C113.201 32.9273 105.333 37.8728 97.2401 39.5588C88.9227 41.3572 80.3804 42.2564 71.7257 42.2564ZM53.0676 40.1208C67.6794 42.3687 82.7407 41.9192 97.1277 38.8844C104.883 37.1984 112.414 32.5901 111.627 26.1834C111.028 25.0594 110.316 24.0853 109.492 23.261C108.592 22.8864 107.656 22.5492 106.682 22.2495C105.445 23.0362 104.209 23.823 102.86 24.4974C87.5739 32.7025 70.4893 37.9852 53.0676 40.1208ZM85.3259 1.68058C67.6794 1.68058 49.9205 6.17651 34.5219 14.6064C31.9367 16.0676 29.0144 17.8659 27.5532 20.7883C25.6424 24.8346 27.778 29.7801 30.8127 32.5901C34.1847 35.6249 38.5682 36.9736 42.9518 38.0976C45.4995 38.6971 48.0472 39.2216 50.5948 39.6712C68.8034 37.7604 86.5623 32.4777 102.523 23.9354C103.647 23.261 104.883 22.5867 105.895 21.9123C103.797 21.088 101.699 20.2637 99.6005 19.4395C99.4881 19.3271 99.3757 19.2147 99.3757 18.9899C99.4881 18.8775 99.6005 18.7651 99.7129 18.7651C102.41 18.5403 105.108 19.3271 107.468 20.6759C108.705 19.5519 109.716 18.3155 110.166 16.8543C111.74 12.5832 109.042 7.86248 105.67 5.50212C101.961 2.91696 97.3525 2.24256 92.8566 2.01776C90.3838 1.79297 87.8736 1.68058 85.3259 1.68058ZM107.356 21.6875C107.581 21.7624 107.806 21.8373 108.03 21.9123C107.88 21.8373 107.693 21.7249 107.468 21.5751C107.468 21.65 107.431 21.6875 107.356 21.6875ZM101.624 19.4395C103.272 20.1139 104.921 20.7508 106.569 21.3503C106.644 21.2753 106.757 21.2004 106.906 21.1255C105.22 20.2263 103.422 19.6643 101.624 19.4395Z" fill="black"/>
</svg>
