<svg width="153" height="64" viewBox="0 0 153 64" fill="none" xmlns="http://www.w3.org/2000/svg">
<path fill-rule="evenodd" clip-rule="evenodd" d="M27.3572 63.2374C19.6017 63.0126 11.6214 60.6522 6.45107 55.3695L4.20311 56.8307L3.86592 56.2687L6.00152 54.8075C4.42794 53.1215 3.19158 51.2108 2.29239 48.9628C-1.07956 40.1957 2.74193 30.8667 5.32709 26.1459C15.4429 7.71263 37.8102 -2.85281 58.4915 0.968735C60.2899 1.30593 62.2006 1.86793 63.437 3.32911C65.0106 5.23988 64.4486 8.16224 63.999 9.62341C61.9758 16.3673 55.9064 20.9756 49.4997 25.4716L48.8252 25.9212C52.1972 27.2699 54.8947 29.1807 56.6931 31.6535C59.8403 35.9246 60.1775 42.1065 58.0419 47.5016C63.3246 47.8388 68.7197 47.614 73.89 46.0404C82.4323 43.5677 90.9746 35.5874 90.0754 25.8088V25.5839C89.963 24.46 89.8506 23.1112 90.6374 22.212C91.5366 21.2004 92.9977 21.2004 94.3465 21.3128C113.679 23.1112 133.236 25.4715 152.344 28.3939L152.232 29.0683C133.124 26.1459 113.567 23.7856 94.3465 21.9872C93.1101 21.8748 91.8738 21.8748 91.1994 22.6616C90.6374 23.336 90.6374 24.46 90.7498 25.4716L90.8622 25.8088C91.649 35.8122 82.8819 44.1297 74.1148 46.8272C68.8321 48.4008 63.2122 48.6256 57.7047 48.176C56.9179 49.862 55.9063 51.548 54.6699 53.0091C49.05 59.4158 40.5078 61.8886 34.3259 62.7878C32.0779 63.125 29.7176 63.2374 27.3572 63.2374ZM7.01306 54.9199C13.5322 61.5514 24.8844 63.4622 34.2135 62.1134C40.283 61.2142 48.6004 58.8538 54.108 52.5595C55.3069 51.2108 56.281 49.7121 57.0303 48.0636C53.0963 47.8388 49.2748 47.1644 45.6781 46.6024C41.6318 45.928 37.0234 45.2537 33.3143 42.7809C31.9655 41.9941 30.6167 40.7577 29.6052 39.2965L7.01306 54.9199ZM51.0732 0.85633C32.9771 0.406737 14.7686 10.4102 6.00152 26.4832C3.41636 31.0915 -0.405195 40.0833 2.96675 48.6256C3.86594 50.8736 4.98994 52.6719 6.56351 54.3579L29.268 38.6222C27.9192 36.4866 27.2448 34.0138 27.9192 31.5411C29.4928 25.4716 37.3606 23.2236 44.1045 24.46C45.5282 24.7597 46.8395 25.1344 48.0384 25.5839L49.05 24.9096C55.4567 20.4137 61.3015 15.9177 63.3246 9.3986C63.7742 8.04983 64.2238 5.46466 62.875 3.66629C61.8634 2.42991 60.0651 1.98033 58.3791 1.64313C55.9812 1.19354 53.546 0.931262 51.0732 0.85633ZM30.1671 38.847C31.1787 40.1957 32.4151 41.3197 33.6515 42.2189C37.2482 44.5793 41.8565 45.2536 45.7905 45.928C49.4996 46.49 53.3212 47.052 57.2551 47.3892C59.5031 42.1065 59.1659 36.2618 56.1311 31.9907C54.3327 29.6303 51.6352 27.6071 48.1509 26.3707L30.1671 38.847ZM40.845 24.9096C35.3375 24.6848 29.8299 26.9328 28.5935 31.6535C28.0316 34.0138 28.5936 36.2618 29.83 38.285L47.3641 26.0336C46.2401 25.7338 45.1161 25.4341 43.9921 25.1344C42.9431 24.9845 41.894 24.9096 40.845 24.9096Z" fill="black"/>
</svg>
