<svg width="70" height="70" viewBox="0 0 70 70" fill="none" xmlns="http://www.w3.org/2000/svg">
<path d="M17.5 64.1667H61.25V58.3334H17.535C16.1875 58.2984 14.5833 57.7646 14.5833 55.4167C14.5833 53.0688 16.1875 52.535 17.535 52.5H61.25V11.6667C61.25 8.44962 58.6338 5.83337 55.4167 5.83337H17.5C13.9825 5.83337 8.75 8.16379 8.75 14.5834V55.4167C8.75 61.8363 13.9825 64.1667 17.5 64.1667ZM14.5833 23.3334V14.5834C14.5833 12.2355 16.1875 11.7017 17.5 11.6667H55.4167V46.6667H14.5833V23.3334Z" fill="white"/>
<path d="M32.0833 40.8333H37.9167V29.1667H43.75V23.3333H37.9167V17.5H32.0833V23.3333H26.25V29.1667H32.0833V40.8333Z" fill="white"/>
</svg>
