<svg width="70" height="70" viewBox="0 0 70 70" fill="none" xmlns="http://www.w3.org/2000/svg">
<path d="M54.6875 19.6875H43.75V8.75C43.75 7.58968 43.2891 6.47688 42.4686 5.65641C41.6481 4.83594 40.5353 4.375 39.375 4.375H30.625C29.4647 4.375 28.3519 4.83594 27.5314 5.65641C26.7109 6.47688 26.25 7.58968 26.25 8.75V19.6875H15.3125C14.1522 19.6875 13.0394 20.1484 12.2189 20.9689C11.3984 21.7894 10.9375 22.9022 10.9375 24.0625V32.8125C10.9375 33.9728 11.3984 35.0856 12.2189 35.9061C13.0394 36.7266 14.1522 37.1875 15.3125 37.1875H26.25V61.25C26.25 62.4103 26.7109 63.5231 27.5314 64.3436C28.3519 65.1641 29.4647 65.625 30.625 65.625H39.375C40.5353 65.625 41.6481 65.1641 42.4686 64.3436C43.2891 63.5231 43.75 62.4103 43.75 61.25V37.1875H54.6875C55.8478 37.1875 56.9606 36.7266 57.7811 35.9061C58.6016 35.0856 59.0625 33.9728 59.0625 32.8125V24.0625C59.0625 22.9022 58.6016 21.7894 57.7811 20.9689C56.9606 20.1484 55.8478 19.6875 54.6875 19.6875ZM54.6875 32.8125H41.5625C40.9823 32.8125 40.4259 33.043 40.0157 33.4532C39.6055 33.8634 39.375 34.4198 39.375 35V61.25H30.625V35C30.625 34.4198 30.3945 33.8634 29.9843 33.4532C29.5741 33.043 29.0177 32.8125 28.4375 32.8125H15.3125V24.0625H28.4375C29.0177 24.0625 29.5741 23.832 29.9843 23.4218C30.3945 23.0116 30.625 22.4552 30.625 21.875V8.75H39.375V21.875C39.375 22.4552 39.6055 23.0116 40.0157 23.4218C40.4259 23.832 40.9823 24.0625 41.5625 24.0625H54.6875V32.8125Z" fill="white"/>
</svg>
