<svg width="70" height="70" viewBox="0 0 70 70" fill="none" xmlns="http://www.w3.org/2000/svg">
<path d="M44.9641 28.8039L31.8391 20.0539C31.5095 19.8341 31.1265 19.7078 30.7309 19.6886C30.3352 19.6695 29.9418 19.7581 29.5925 19.9451C29.2433 20.132 28.9514 20.4103 28.748 20.7502C28.5446 21.0901 28.4372 21.4789 28.4375 21.875V39.375C28.4372 39.7711 28.5446 40.1599 28.748 40.4998C28.9514 40.8397 29.2433 41.118 29.5925 41.3049C29.9418 41.4919 30.3352 41.5805 30.7309 41.5614C31.1265 41.5422 31.5095 41.4159 31.8391 41.1961L44.9641 32.4461C45.2641 32.2464 45.5102 31.9757 45.6804 31.658C45.8506 31.3403 45.9396 30.9854 45.9396 30.625C45.9396 30.2646 45.8506 29.9097 45.6804 29.592C45.5102 29.2743 45.2641 29.0036 44.9641 28.8039ZM32.8125 35.2871V25.9766L39.807 30.625L32.8125 35.2871ZM59.0625 10.9375H10.9375C9.77718 10.9375 8.66438 11.3984 7.84391 12.2189C7.02344 13.0394 6.5625 14.1522 6.5625 15.3125V45.9375C6.5625 47.0978 7.02344 48.2106 7.84391 49.0311C8.66438 49.8516 9.77718 50.3125 10.9375 50.3125H59.0625C60.2228 50.3125 61.3356 49.8516 62.1561 49.0311C62.9766 48.2106 63.4375 47.0978 63.4375 45.9375V15.3125C63.4375 14.1522 62.9766 13.0394 62.1561 12.2189C61.3356 11.3984 60.2228 10.9375 59.0625 10.9375ZM59.0625 45.9375H10.9375V15.3125H59.0625V45.9375ZM63.4375 56.875C63.4375 57.4552 63.207 58.0116 62.7968 58.4218C62.3866 58.832 61.8302 59.0625 61.25 59.0625H8.75C8.16984 59.0625 7.61344 58.832 7.2032 58.4218C6.79297 58.0116 6.5625 57.4552 6.5625 56.875C6.5625 56.2948 6.79297 55.7384 7.2032 55.3282C7.61344 54.918 8.16984 54.6875 8.75 54.6875H61.25C61.8302 54.6875 62.3866 54.918 62.7968 55.3282C63.207 55.7384 63.4375 56.2948 63.4375 56.875Z" fill="white"/>
</svg>
